REM MD5 b387c3bb082a867dda27d09858148a92
FILE "Frank Thomas Big Hurt Baseball (Europe).bin" BINARY
  TRACK 01 MODE2/2352
    INDEX 01 00:00:00
  TRACK 02 AUDIO
    INDEX 00 14:53:52
    INDEX 01 14:55:52
  TRACK 03 AUDIO
    INDEX 00 17:54:02
    INDEX 01 17:56:02
REM LEADOUT 20:56:27
